<?xml version="1.0" standalone="no"?>
<!DOCTYPE svg PUBLIC "-//W3C//DTD SVG 20010904//EN"
 "http://www.w3.org/TR/2001/REC-SVG-20010904/DTD/svg10.dtd">
<svg version="1.0" xmlns="http://www.w3.org/2000/svg"
 width="2603.000000pt" height="862.000000pt" viewBox="0 0 2603.000000 862.000000"
 preserveAspectRatio="xMidYMid meet">

<g transform="translate(0.000000,862.000000) scale(0.100000,-0.100000)"
fill="#000000" stroke="none">
<path d="M4136 8543 c-3 -42 -6 -141 -6 -220 l0 -143 45 0 45 0 0 121 c0 77 4
119 10 117 6 -2 41 -55 78 -118 l67 -115 48 -3 47 -3 0 148 c0 81 3 178 7 216
l6 67 -52 0 -51 0 0 -122 0 -123 -76 128 -76 127 -43 0 -42 0 -7 -77z"/>
<path d="M3389 8537 c-29 -16 -54 -40 -74 -72 -26 -42 -30 -58 -30 -119 0 -89
31 -157 92 -200 129 -90 313 12 313 175 0 43 -30 132 -57 168 -53 69 -162 91
-244 48z m154 -94 c54 -57 60 -171 12 -219 -50 -50 -140 -16 -165 62 -18 53
-8 129 20 159 34 36 97 35 133 -2z"/>
<path d="M5474 8388 c3 -18 13 -82 22 -141 l15 -108 -30 -85 -31 -85 35 -15
c19 -7 39 -14 44 -14 5 0 24 38 41 84 l32 84 109 89 c60 48 109 91 109 95 0 3
-21 13 -47 22 -52 18 -44 22 -139 -67 l-41 -39 -7 59 c-14 119 -14 120 -60
137 -56 22 -59 21 -52 -16z"/>
<path d="M2166 8100 c-131 -66 -181 -182 -129 -301 71 -160 236 -183 382 -52
l45 39 -54 95 c-29 52 -55 96 -57 99 -5 6 -131 -60 -143 -75 -6 -7 -2 -24 10
-43 20 -32 21 -32 50 -17 40 21 44 20 63 -19 l16 -35 -43 -20 c-23 -12 -53
-21 -67 -21 -62 0 -129 81 -129 156 0 49 58 108 124 126 45 12 46 13 40 43 -3
16 -8 33 -11 38 -8 13 -57 7 -97 -13z"/>
<path d="M6235 8040 c-124 -29 -216 -174 -185 -290 20 -75 115 -150 189 -150
42 0 97 25 138 63 72 66 101 140 88 224 -14 96 -134 176 -230 153z m113 -116
c47 -54 9 -179 -69 -219 -95 -50 -173 50 -120 153 49 96 136 127 189 66z"/>
<path d="M3490 7846 c0 -8 34 -83 76 -166 61 -123 86 -162 133 -209 105 -105
214 -139 336 -106 36 9 68 21 70 26 3 4 -14 18 -37 30 -88 44 -242 156 -433
315 -96 79 -125 107 -92 88 193 -115 405 -261 514 -354 32 -28 61 -50 66 -50
13 0 8 104 -8 157 -10 33 -32 70 -61 102 -84 93 -176 133 -368 161 -161 24
-196 25 -196 6z"/>
<path d="M1501 7643 l-31 -28 79 -90 c44 -49 79 -90 78 -91 -1 -1 -64 16 -141
38 l-138 40 -31 -30 -30 -31 85 -98 c47 -54 113 -127 146 -163 l61 -65 31 31
32 32 -88 98 c-49 54 -82 95 -73 92 45 -17 261 -78 277 -78 17 0 62 38 62 52
0 9 -269 312 -280 316 -4 2 -22 -9 -39 -25z"/>
<path d="M6831 7497 c-107 -117 -131 -156 -131 -210 0 -48 19 -86 64 -125 43
-37 88 -48 145 -32 34 9 62 31 137 109 136 140 133 136 95 174 l-31 31 -112
-117 c-120 -125 -135 -133 -182 -96 -50 39 -37 68 93 209 l94 101 -29 30 c-15
16 -33 29 -38 29 -6 0 -53 -47 -105 -103z"/>
<path d="M4442 7078 c-90 -197 -110 -283 -92 -391 16 -91 60 -161 132 -211 32
-22 60 -37 63 -34 3 2 1 29 -5 59 -24 130 -43 686 -24 666 23 -22 67 -540 57
-661 l-6 -69 32 19 c140 82 182 287 96 473 -38 81 -165 281 -180 281 -6 0 -39
-60 -73 -132z"/>
<path d="M2125 7170 c-3 -5 19 -60 49 -122 60 -126 121 -202 195 -246 39 -23
57 -27 121 -27 52 0 84 6 105 17 17 10 25 17 18 18 -22 0 -247 158 -358 251
-60 50 -105 90 -99 88 51 -18 328 -208 437 -299 l37 -32 0 49 c0 26 -5 64 -10
84 -21 75 -124 161 -225 188 -30 8 -241 41 -261 41 -2 0 -6 -4 -9 -10z"/>
<path d="M913 7040 c-13 -15 -23 -32 -23 -37 1 -4 76 -68 168 -141 l167 -132
27 32 c15 18 28 36 28 40 0 9 -326 268 -337 267 -4 0 -18 -13 -30 -29z"/>
<path d="M6255 6754 c-226 -25 -345 -69 -454 -169 -35 -34 -70 -78 -85 -108
-30 -62 -51 -174 -41 -224 l6 -36 42 40 c55 53 210 166 328 241 134 84 410
245 414 240 6 -6 -346 -273 -473 -358 -70 -47 -167 -106 -215 -131 l-89 -46
46 -22 c191 -89 405 -22 553 174 59 78 213 363 213 395 0 18 -6 20 -57 19 -32
-1 -116 -8 -188 -15z"/>
<path d="M3400 6650 c-185 -114 -253 -169 -316 -257 -102 -142 -121 -289 -55
-428 17 -37 33 -66 36 -63 3 2 30 55 60 118 31 62 74 145 97 184 48 86 321
496 326 491 2 -2 -46 -101 -107 -222 -117 -233 -215 -401 -296 -510 -27 -38
-52 -72 -54 -77 -7 -16 131 1 191 24 131 49 233 182 274 358 15 66 37 432 27
458 -9 25 -37 14 -183 -76z"/>
<path d="M4884 6726 c-11 -29 14 -417 32 -481 20 -77 76 -183 125 -238 66 -75
212 -135 307 -125 l32 3 -55 74 c-31 40 -90 130 -131 200 -80 135 -292 547
-276 537 19 -11 281 -412 351 -535 38 -68 83 -155 98 -193 15 -37 31 -68 35
-68 13 0 56 105 69 167 31 152 -52 327 -216 458 -69 54 -311 203 -344 212 -14
3 -23 -1 -27 -11z"/>
<path d="M586 6559 c-58 -46 -83 -147 -51 -208 14 -28 68 -61 99 -61 26 0 85
28 118 55 22 18 40 25 62 23 27 -3 31 -7 34 -34 2 -24 -5 -39 -30 -66 -18 -19
-40 -37 -48 -40 -12 -5 -8 -13 17 -39 l33 -33 27 20 c106 79 121 219 30 274
-51 31 -96 26 -165 -20 -65 -44 -83 -48 -103 -24 -11 13 -10 21 6 50 10 19 21
34 24 34 3 0 15 7 25 15 19 15 19 16 -9 45 -34 36 -35 36 -69 9z"/>
<path d="M2887 6430 c-10 -81 -8 -397 4 -535 31 -366 101 -629 249 -930 65
-132 188 -332 259 -419 17 -21 31 -42 31 -45 0 -7 -248 -56 -455 -90 -297 -49
-382 -56 -665 -56 -306 0 -342 5 -494 70 l-81 34 44 -39 c90 -82 238 -131 459
-152 149 -14 331 -3 707 42 268 33 502 47 580 36 44 -7 58 -17 159 -114 61
-59 169 -156 239 -215 l127 -108 65 46 c36 26 67 50 70 54 2 4 -26 30 -63 57
-304 222 -584 494 -644 623 -78 168 -75 382 7 628 61 183 146 334 325 578 124
169 178 267 186 340 l5 50 -45 -88 c-49 -95 -98 -167 -266 -387 -266 -349
-369 -557 -387 -782 -3 -43 -9 -78 -13 -78 -11 0 -145 267 -193 385 -119 292
-175 578 -195 990 -6 132 -9 150 -15 105z"/>
<path d="M5557 6298 c-19 -459 -99 -794 -277 -1150 -198 -397 -438 -689 -805
-980 -38 -30 -153 -115 -255 -188 -348 -250 -452 -345 -513 -469 -30 -61 -32
-73 -32 -166 0 -92 3 -105 32 -168 35 -73 130 -181 215 -243 l47 -35 106 57
106 56 -81 47 c-166 95 -222 159 -228 258 -9 130 52 202 414 494 251 201 424
351 523 452 53 54 73 68 114 78 73 17 296 6 592 -30 138 -17 323 -36 413 -43
346 -25 647 37 762 157 l35 37 -50 -25 c-149 -74 -273 -92 -592 -84 -230 6
-324 15 -593 57 -138 22 -453 81 -459 86 -2 2 26 43 62 91 244 329 403 721
462 1143 20 136 33 706 18 721 -6 6 -12 -48 -16 -153z"/>
<path d="M1661 6302 c-20 -37 -83 -319 -88 -394 -12 -167 47 -322 152 -397 39
-28 153 -76 161 -68 2 2 -8 30 -21 64 -43 107 -95 302 -141 536 -25 126 -43
231 -41 234 8 7 126 -360 167 -522 21 -82 43 -183 49 -223 5 -41 12 -76 14
-78 8 -9 85 86 108 134 19 38 23 64 24 137 0 166 -45 256 -233 460 -68 74
-127 135 -132 135 -5 0 -14 -8 -19 -18z"/>
<path d="M251 5869 c-7 -23 -9 -45 -4 -49 4 -4 64 -26 134 -49 149 -49 169
-61 169 -102 0 -88 -41 -94 -216 -34 -74 26 -139 43 -144 39 -8 -10 -32 -76
-28 -79 18 -14 293 -95 323 -95 151 0 213 213 87 297 -18 12 -90 41 -160 64
-70 23 -132 44 -138 46 -6 2 -16 -15 -23 -38z"/>
<path d="M4702 5706 c-67 -13 -125 -25 -128 -29 -15 -14 15 -53 131 -166 134
-132 197 -171 308 -192 93 -17 164 5 272 83 16 12 2 18 -101 43 -55 13 -133
36 -174 50 -110 37 -410 158 -406 163 7 7 348 -86 470 -128 65 -23 141 -52
168 -66 28 -14 52 -23 55 -21 10 11 -11 80 -41 129 -88 146 -259 188 -554 134z"/>
<path d="M3965 5414 c-258 -160 -357 -248 -413 -366 -59 -124 -63 -228 -11
-347 34 -80 42 -80 73 -3 44 108 158 302 309 529 78 116 143 210 145 208 6 -6
-216 -438 -283 -551 -37 -61 -91 -144 -121 -183 -30 -40 -54 -77 -54 -82 0
-25 144 1 227 41 103 51 189 170 228 315 18 69 38 316 33 420 -4 90 -14 92
-133 19z"/>
<path d="M7130 5324 c-74 -42 -154 -90 -178 -106 -77 -53 -150 -136 -189 -216
-36 -73 -38 -80 -38 -177 1 -87 4 -107 28 -159 l27 -59 53 104 c29 57 84 154
123 214 70 110 302 435 311 435 6 0 -102 -203 -180 -340 -77 -134 -187 -300
-245 -369 l-46 -54 85 5 c153 8 261 83 333 231 47 95 63 165 76 321 15 195 14
246 -7 246 -10 0 -79 -34 -153 -76z"/>
<path d="M2118 5241 c-80 -66 -164 -143 -188 -173 -93 -116 -144 -273 -121
-377 13 -61 52 -145 84 -179 l21 -22 18 72 c11 40 44 136 75 213 59 148 243
538 251 531 6 -7 -105 -335 -165 -485 -29 -74 -78 -181 -107 -238 -61 -117
-62 -116 45 -83 123 37 192 100 246 220 56 123 61 222 29 502 -14 114 -20 138
-35 138 -4 0 -73 -54 -153 -119z"/>
<path d="M50 5077 c-26 -57 -27 -155 -1 -206 66 -129 253 -164 359 -67 52 47
81 155 62 227 -10 35 -14 40 -33 35 -12 -3 -30 -6 -39 -6 -15 0 -16 -7 -11
-49 7 -60 -10 -114 -44 -141 -35 -28 -125 -28 -171 0 -60 37 -77 124 -35 188
17 28 19 26 -30 46 l-38 15 -19 -42z"/>
<path d="M5634 5074 c-4 -14 -4 -98 -1 -187 4 -130 9 -174 26 -221 54 -151
140 -226 278 -243 l54 -6 -54 84 c-55 84 -153 272 -200 384 -14 33 -37 86 -51
118 -14 31 -24 57 -22 57 7 0 166 -264 218 -360 38 -72 79 -159 117 -255 7
-17 12 -12 37 35 25 48 29 66 29 140 0 107 -28 174 -112 261 -53 56 -278 219
-302 219 -6 0 -14 -12 -17 -26z"/>
<path d="M21900 3015 l0 -1735 45 0 45 0 0 1735 0 1735 -45 0 -45 0 0 -1735z"/>
<path d="M9163 4669 c-538 -52 -969 -369 -1124 -827 -84 -248 -77 -572 16
-832 78 -214 197 -386 355 -513 143 -114 304 -186 480 -212 132 -21 170 -20
170 3 0 15 -15 20 -103 29 -201 23 -356 94 -498 230 -213 204 -322 491 -321
848 1 290 68 522 217 745 212 319 542 492 940 492 198 1 319 -27 472 -107 240
-126 407 -340 475 -611 32 -126 32 -413 0 -554 -28 -124 -103 -277 -170 -347
-121 -126 -323 -203 -534 -203 l-69 0 3 503 3 502 25 50 c16 32 39 59 64 75
l39 25 -132 3 c-73 1 -189 1 -259 0 -105 -3 -123 -5 -102 -14 42 -20 77 -66
94 -123 23 -80 24 -1595 1 -1685 -19 -71 -34 -94 -83 -123 l-37 -23 260 0
c258 0 260 0 230 19 -95 59 -105 101 -105 461 l0 287 111 7 c500 30 806 240
899 616 31 122 38 336 15 455 -86 455 -492 771 -1060 825 -121 11 -151 11
-272 -1z"/>
<path d="M115 4301 c-142 -65 -155 -262 -23 -344 123 -76 305 -23 347 102 32
96 -13 201 -104 242 -54 25 -166 25 -220 0z m164 -81 c102 -29 111 -146 15
-186 -67 -28 -170 -9 -193 34 -14 26 -14 77 -1 102 24 44 113 69 179 50z"/>
<path d="M24386 3974 c-9 -8 -16 -18 -16 -20 0 -16 57 -90 397 -511 341 -422
374 -466 360 -481 -93 -107 -757 -937 -757 -947 0 -8 10 -21 22 -29 18 -13 25
-13 40 -3 10 6 183 216 386 466 202 250 372 456 377 457 6 1 165 -187 355
-418 190 -231 366 -442 391 -470 42 -45 49 -49 68 -38 15 8 21 19 19 35 -2 15
-163 219 -391 495 l-387 470 390 475 c220 268 390 484 390 495 0 22 -31 43
-52 35 -7 -3 -184 -214 -393 -470 -209 -255 -383 -464 -386 -464 -3 -1 -173
206 -378 459 -328 405 -393 480 -415 480 -2 0 -12 -7 -20 -16z"/>
<path d="M13113 3970 c-131 -24 -242 -88 -349 -203 -125 -134 -193 -297 -202
-484 -6 -129 6 -202 49 -315 79 -205 252 -380 429 -436 86 -27 287 -23 361 6
280 111 478 438 455 752 -8 110 -34 202 -92 320 -39 79 -62 109 -133 180 -125
124 -233 175 -390 184 -42 3 -99 1 -128 -4z m223 -54 c128 -59 229 -253 265
-505 18 -130 7 -363 -24 -482 -47 -179 -137 -316 -242 -365 -37 -18 -68 -24
-119 -24 -95 0 -140 16 -202 73 -137 125 -209 343 -208 632 1 331 109 590 279
671 70 33 179 33 251 0z"/>
<path d="M20430 3954 c-59 -156 -666 -1719 -680 -1751 -23 -53 -101 -137 -157
-170 -24 -14 -43 -27 -43 -29 0 -2 93 -4 208 -4 l207 0 -53 31 c-86 49 -114
116 -92 218 12 55 89 265 157 428 l35 83 328 0 327 0 76 -192 c136 -344 144
-372 126 -437 -8 -29 -28 -60 -56 -88 l-42 -43 281 0 282 0 -45 28 c-52 34
-86 72 -127 144 -16 29 -182 445 -368 923 -185 479 -341 874 -345 879 -5 5
-13 -4 -19 -20z m63 -749 c80 -209 148 -388 152 -397 7 -17 -12 -18 -310 -18
-250 0 -316 3 -312 13 3 6 74 189 158 405 83 216 155 389 159 385 4 -4 73
-179 153 -388z"/>
<path d="M22732 3964 l-22 -15 0 -974 0 -974 22 -15 c19 -13 25 -14 43 -2 20
13 20 19 23 960 l2 947 413 -4 c452 -4 459 -5 576 -67 74 -40 168 -137 205
-212 40 -82 59 -187 52 -293 -13 -212 -97 -346 -270 -430 -109 -53 -199 -67
-440 -70 -163 -2 -210 -5 -217 -16 -11 -17 -11 -31 -1 -44 4 -5 269 -185 590
-400 615 -412 612 -410 620 -344 3 22 -49 60 -510 369 l-513 345 130 6 c456
22 695 237 695 624 0 291 -136 487 -397 574 -129 44 -219 51 -618 51 -310 0
-364 -2 -383 -16z"/>
<path d="M10815 3957 c48 -29 84 -76 99 -129 15 -49 16 -145 14 -864 l-3 -809
-25 -50 c-16 -32 -39 -59 -64 -75 l-39 -25 126 -3 c69 -1 185 -1 258 0 l132 3
-39 25 c-25 16 -48 43 -64 75 -25 50 -25 52 -28 359 l-3 309 143 -5 c240 -10
308 -47 578 -318 289 -291 396 -366 633 -445 381 -126 893 -32 1158 213 56 51
119 133 119 154 0 4 -8 8 -18 8 -11 0 -34 -22 -57 -56 -75 -108 -251 -219
-421 -265 -104 -29 -305 -31 -409 -6 -156 39 -338 148 -561 333 -285 237 -431
326 -624 379 -47 13 -73 24 -59 24 54 2 187 42 269 82 65 32 102 59 155 113
107 109 155 226 155 381 -1 343 -242 556 -673 595 -159 14 -777 12 -752 -3z
m766 -41 c197 -35 337 -169 384 -367 19 -84 19 -274 0 -358 -44 -184 -193
-333 -373 -370 -29 -6 -134 -11 -232 -11 l-180 0 0 560 0 560 163 0 c90 -1
195 -7 238 -14z"/>
<path d="M14154 3946 c49 -31 126 -106 180 -176 23 -30 156 -229 295 -442
l252 -388 -242 -354 c-288 -424 -335 -482 -460 -568 -23 -16 -15 -17 176 -17
l200 0 -33 27 c-18 15 -41 41 -52 57 -27 40 -27 123 0 175 11 21 108 166 216
322 108 156 202 291 209 301 11 16 38 -21 218 -300 112 -175 212 -332 221
-350 34 -67 14 -171 -40 -211 l-29 -21 298 -1 c163 0 297 2 297 5 0 2 -17 13
-39 24 -21 11 -58 42 -82 69 -36 40 -663 983 -671 1010 -5 14 450 665 513 735
34 38 85 81 113 97 l51 30 -210 -1 c-200 0 -209 -1 -185 -17 85 -57 113 -118
91 -194 -10 -34 -97 -166 -358 -551 -21 -31 -40 -56 -43 -56 -9 -1 -368 552
-389 599 -35 78 -21 156 35 198 l29 21 -300 0 -300 0 39 -23z"/>
<path d="M16185 3947 c45 -26 80 -73 95 -128 7 -25 10 -321 8 -851 l-3 -813
-25 -50 c-16 -32 -39 -59 -64 -75 l-39 -25 126 -3 c69 -1 185 -1 258 0 l132 3
-39 25 c-25 16 -48 43 -64 75 l-25 50 -3 809 c-2 719 -1 815 14 864 15 53 51
100 99 129 16 9 -35 12 -245 12 l-265 1 40 -23z"/>
<path d="M17016 3934 c77 -46 122 -89 145 -139 18 -38 19 -81 19 -801 0 -843
2 -813 -66 -892 -19 -23 -60 -53 -92 -69 l-57 -28 118 -3 c64 -1 170 -1 235 0
l117 3 -53 28 c-29 15 -70 46 -92 68 -74 77 -71 33 -68 897 l3 772 435 -879
c239 -483 437 -877 441 -876 3 2 176 400 385 884 l379 881 3 -792 c2 -697 0
-799 -14 -847 -15 -52 -42 -88 -94 -123 -24 -16 -12 -17 235 -17 257 -1 260
-1 230 18 -44 26 -83 76 -97 124 -10 33 -13 223 -13 847 0 754 1 808 18 852
17 43 53 84 103 115 15 9 -16 12 -152 12 -126 1 -174 -2 -182 -11 -5 -7 -162
-368 -347 -803 -186 -434 -341 -793 -345 -798 -3 -4 -187 357 -408 803 l-401
810 -222 0 -223 0 60 -36z"/>
<path d="M2915 3943 c-146 -4 -169 -8 -162 -32 6 -24 150 -230 217 -309 167
-199 397 -252 584 -134 l39 24 -64 21 c-91 30 -406 189 -586 297 -84 50 -153
92 -153 95 0 4 129 -49 320 -132 142 -61 327 -157 413 -214 82 -54 87 -51 67
44 -26 126 -98 218 -214 276 -114 56 -213 70 -461 64z"/>
<path d="M5303 3940 c-141 -16 -282 -82 -351 -166 -41 -49 -72 -132 -79 -207
l-6 -59 69 47 c123 82 350 191 714 342 60 25 21 -1 -150 -102 -195 -114 -457
-246 -555 -278 l-69 -24 39 -27 c98 -67 230 -81 346 -37 138 53 225 139 393
385 84 124 82 126 -73 126 -58 0 -128 2 -156 4 -27 3 -82 1 -122 -4z"/>
<path d="M1343 3860 c-122 -17 -408 -81 -421 -94 -21 -21 -8 -38 155 -197 170
-166 267 -235 381 -273 187 -63 349 -36 478 77 49 43 54 57 23 57 -43 0 -222
41 -370 86 -153 45 -643 223 -636 230 5 5 362 -76 532 -121 155 -41 377 -116
447 -151 27 -14 53 -23 56 -19 9 9 -16 93 -45 155 -33 67 -113 150 -179 183
-119 60 -284 86 -421 67z"/>
<path d="M4339 3799 c-35 -28 -65 -54 -67 -58 -1 -5 20 -26 48 -47 l51 -39
-87 -3 c-49 -2 -94 -8 -101 -14 -18 -15 -16 -55 3 -62 9 -3 76 -6 149 -6 l133
0 40 -47 c21 -27 47 -63 56 -80 l17 -33 -251 0 c-256 0 -290 -4 -290 -38 0
-40 14 -42 292 -42 147 0 268 -3 268 -8 0 -23 -23 -80 -46 -114 l-27 -38 -161
0 c-177 0 -201 -6 -194 -51 3 -24 5 -24 118 -29 l115 -5 -45 -26 c-25 -15
-117 -63 -205 -109 -303 -156 -439 -266 -510 -415 -35 -72 -64 -176 -65 -230
-1 -29 -4 -27 -88 61 -57 59 -110 128 -152 198 -219 361 -285 449 -413 551
-103 83 -254 158 -372 186 -159 37 -334 18 -410 -46 l-20 -17 20 7 c178 59
381 38 543 -57 85 -49 237 -206 314 -323 36 -55 122 -199 191 -320 194 -343
253 -428 449 -648 102 -114 242 -237 270 -237 5 0 22 8 36 19 15 10 74 42 131
71 l105 52 -65 34 c-67 35 -153 101 -177 135 -13 18 -8 19 153 19 170 0 205 7
205 38 0 39 -17 42 -222 42 l-198 0 -10 26 c-6 14 -13 50 -16 80 l-7 54 271 0
c246 0 272 2 292 18 19 16 21 22 11 40 -12 22 -14 22 -288 22 l-275 0 6 30 c3
17 15 53 27 80 l21 50 169 0 c192 0 222 7 217 48 l-3 27 -157 3 c-87 1 -158 6
-158 11 0 23 143 122 358 247 84 49 189 117 232 151 266 213 297 467 84 693
-68 72 -223 200 -242 200 -5 0 -38 -23 -73 -51z"/>
<path d="M315 3483 c-34 -8 -35 -17 -16 -86 11 -37 16 -69 13 -71 -4 -2 -23
-7 -43 -11 l-36 -7 -18 69 c-10 37 -21 71 -24 75 -8 9 -81 -10 -81 -20 1 -16
65 -234 70 -235 3 -1 97 23 208 53 l204 55 -7 40 c-3 22 -9 43 -13 46 -4 4
-43 -4 -87 -17 -44 -12 -81 -21 -83 -20 -1 2 -11 32 -21 67 -18 64 -26 72 -66
62z"/>
<path d="M5897 3300 c-155 -39 -297 -121 -426 -244 -94 -90 -152 -169 -281
-381 -57 -93 -115 -186 -129 -205 -30 -43 -163 -180 -173 -180 -5 0 -8 13 -8
28 0 46 -28 142 -64 218 -42 88 -140 195 -244 264 l-74 50 -52 -30 c-28 -17
-77 -45 -108 -63 -32 -17 -58 -34 -58 -37 0 -3 30 -26 68 -50 84 -55 169 -140
204 -206 83 -153 76 -348 -17 -474 -52 -70 -131 -123 -345 -230 -266 -133
-357 -199 -432 -315 -21 -32 -48 -90 -60 -128 -66 -219 48 -542 284 -801 l63
-69 79 63 78 62 -45 47 c-166 172 -247 333 -247 490 0 66 4 87 30 138 57 114
130 167 455 331 217 110 279 156 412 304 206 230 261 309 462 662 178 313 244
409 351 517 140 141 276 206 445 216 82 5 177 -8 250 -32 l20 -7 -20 17 c-11
10 -40 27 -65 38 -66 30 -246 34 -353 7z"/>
<path d="M6422 3232 c-13 -4 -22 -11 -21 -17 2 -5 32 -32 68 -59 74 -55 419
-395 356 -351 -105 75 -240 189 -342 290 l-113 110 -6 -43 c-9 -58 1 -123 25
-171 30 -58 120 -135 193 -163 80 -32 295 -84 305 -74 10 10 -52 193 -95 278
-65 132 -172 209 -287 207 -33 -1 -70 -4 -83 -7z"/>
<path d="M2797 2679 c-112 -74 -160 -169 -160 -319 0 -77 5 -110 27 -175 37
-109 166 -355 187 -355 16 0 121 176 179 301 89 191 73 385 -41 499 -28 28
-62 56 -78 64 l-28 15 5 -187 c5 -201 -24 -674 -39 -633 -16 40 -22 539 -10
669 7 68 15 130 18 138 8 22 -9 17 -60 -17z"/>
<path d="M5534 2678 c-110 -74 -161 -191 -151 -340 7 -110 32 -177 131 -354
62 -111 88 -149 102 -149 14 0 36 34 91 140 96 187 114 239 120 356 6 113 -10
182 -60 254 -32 46 -141 135 -152 123 -3 -3 0 -39 6 -79 14 -86 17 -471 5
-642 -4 -65 -9 -117 -11 -115 -1 2 -8 57 -14 123 -21 209 -30 468 -21 591 4
66 7 120 5 122 -1 1 -24 -12 -51 -30z"/>
<path d="M4411 1539 l-133 -67 58 -37 c33 -20 74 -51 92 -69 l33 -31 -143 -5
c-142 -5 -143 -5 -146 -29 -7 -45 17 -51 194 -51 l162 0 11 -32 c5 -18 13 -54
17 -80 l6 -48 -249 0 c-258 0 -273 -2 -273 -42 0 -33 34 -38 269 -38 266 0
251 7 201 -97 l-29 -63 -140 0 c-77 0 -146 -3 -155 -6 -19 -7 -21 -45 -4 -62
8 -8 52 -12 131 -12 l118 0 -44 -58 c-25 -32 -85 -96 -134 -142 -284 -270
-646 -428 -1108 -485 -143 -18 -441 -24 -685 -13 -175 7 -147 0 115 -32 486
-57 757 -46 1110 44 394 101 668 264 859 510 144 184 226 376 234 547 7 160
-28 265 -127 371 -97 106 -85 104 -240 27z"/>
<path d="M4405 390 c-4 -6 -36 -33 -71 -60 l-66 -49 104 -50 c197 -96 427
-165 673 -202 163 -25 456 -30 645 -11 176 18 460 55 456 59 -2 2 -109 -1
-237 -8 -610 -31 -1057 63 -1456 306 -26 16 -44 21 -48 15z"/>
<path d="M2263 83 c9 -2 23 -2 30 0 6 3 -1 5 -18 5 -16 0 -22 -2 -12 -5z"/>
<path d="M6173 83 c9 -2 23 -2 30 0 6 3 -1 5 -18 5 -16 0 -22 -2 -12 -5z"/>
</g>
</svg>
